<?xml version="1.0" standalone="no"?>
<!DOCTYPE svg PUBLIC "-//W3C//DTD SVG 20010904//EN"
 "http://www.w3.org/TR/2001/REC-SVG-20010904/DTD/svg10.dtd">
<svg version="1.0" xmlns="http://www.w3.org/2000/svg"
 width="900.000000pt" height="900.000000pt" viewBox="0 0 900.000000 900.000000"
 preserveAspectRatio="xMidYMid meet">
<metadata>
Created by potrace 1.11, written by Peter Selinger 2001-2013
</metadata>
<g transform="translate(0.000000,900.000000) scale(0.100000,-0.100000)"
fill="#000000" stroke="none">
<path d="M4215 8869 c-1902 -118 -3518 -1467 -3974 -3316 -90 -365 -124 -657
-124 -1053 0 -396 34 -688 124 -1053 385 -1563 1616 -2800 3176 -3191 376 -94
669 -129 1073 -129 404 0 697 35 1073 129 1440 361 2606 1443 3078 2854 102
306 168 613 205 952 24 210 24 666 0 876 -128 1165 -667 2181 -1550 2921 -855
717 -1961 1080 -3081 1010z m507 -219 c744 -39 1446 -271 2077 -686 420 -277
853 -704 1130 -1114 87 -129 94 -140 88 -140 -3 0 -26 34 -53 75 -27 41 -53
75 -58 75 -9 0 -314 -208 -561 -384 -93 -67 -173 -124 -178 -127 -8 -5 57
-518 66 -525 4 -3 993 460 1005 471 2 2 -11 30 -27 64 -17 34 -29 61 -25 61
12 0 144 -290 204 -450 24 -66 26 -76 11 -77 -9 -1 -173 -58 -366 -126 -637
-227 -735 -265 -735 -279 0 -19 93 -416 100 -428 8 -13 179 14 774 124 225 42
411 74 413 72 6 -5 42 -263 49 -347 l7 -77 -59 -6 c-33 -3 -149 -13 -259 -21
-472 -37 -833 -70 -840 -77 -7 -7 116 -452 128 -464 11 -10 70 -17 387 -44
186 -16 609 -50 626 -50 15 0 16 -9 10 -77 -8 -87 -46 -346 -51 -352 -3 -2
-132 20 -287 48 -339 61 -568 101 -583 101 -7 0 1 -55 22 -147 18 -82 43 -211
56 -288 l24 -140 99 -38 c54 -20 187 -69 294 -108 107 -39 196 -72 198 -74 5
-4 -78 -213 -123 -311 l-37 -81 -184 84 c-102 47 -187 83 -190 81 -2 -3 3
-105 11 -229 8 -123 18 -287 22 -364 l8 -140 -44 -65 c-71 -104 -221 -286
-328 -400 -113 -119 -276 -280 -285 -280 -20 0 -27 112 -47 710 -9 264 -27
420 -57 515 -17 52 -41 88 -54 80 -9 -6 -27 -99 -36 -188 -7 -72 -19 -92 -33
-55 -8 21 -8 22 -14 3 -3 -11 -11 -47 -17 -80 -5 -33 -19 -72 -29 -86 -18 -24
-18 -28 -4 -49 14 -20 14 -28 -1 -83 -8 -34 -18 -96 -22 -137 -3 -41 -12 -87
-19 -102 -11 -23 -11 -28 2 -33 12 -4 14 -17 11 -59 -5 -61 -31 -116 -93 -195
-24 -31 -64 -91 -90 -134 -49 -81 -154 -191 -207 -217 -20 -10 -34 -27 -42
-50 -11 -36 -49 -62 -111 -76 -16 -3 -24 -9 -17 -11 21 -8 14 -18 -35 -53 -69
-48 -102 -79 -131 -125 -14 -22 -31 -44 -39 -48 -10 -6 -11 -12 -4 -21 8 -9
-6 -23 -54 -56 -36 -23 -67 -45 -69 -49 -2 -3 2 -15 10 -25 12 -18 15 -18 39
-2 14 9 25 21 25 27 0 5 24 21 53 34 67 32 136 32 195 2 l43 -23 -128 -61
c-413 -198 -866 -327 -1335 -380 -190 -21 -687 -24 -853 -5 -543 63 -977 188
-1435 412 -486 239 -905 562 -1281 987 -139 157 -320 397 -308 407 2 1 50 35
105 74 120 85 111 60 120 347 5 167 -4 367 -18 381 -5 5 -128 -49 -385 -170
-78 -36 -144 -66 -147 -66 -3 0 -14 17 -25 37 -26 53 -142 345 -138 349 2 2
95 37 208 78 282 103 420 154 424 158 2 2 -7 66 -20 143 -13 77 -29 192 -36
255 -7 63 -15 118 -18 122 -6 6 -299 -42 -590 -96 -74 -14 -136 -24 -138 -22
-6 5 -42 261 -49 341 l-7 81 219 17 c121 10 296 25 391 34 l172 16 6 66 c12
131 26 228 46 328 11 57 18 107 15 111 -3 5 -40 12 -83 15 -43 4 -150 13 -238
21 -88 8 -227 20 -310 26 -221 16 -215 15 -215 54 0 35 23 220 41 327 l10 67
32 -8 c35 -10 513 -97 726 -133 l134 -22 74 219 c40 120 78 226 83 235 9 17
-86 55 -615 243 -240 84 -264 95 -259 113 10 33 100 256 129 318 19 41 30 55
38 48 17 -13 683 -326 824 -387 l31 -14 36 64 c43 77 132 202 197 278 l49 57
-82 58 c-266 188 -724 502 -733 503 -5 0 -27 -27 -49 -60 -21 -33 -40 -60 -43
-60 -6 0 -1 8 77 125 146 219 330 435 558 657 826 802 1945 1220 3104 1158z
m-3763 -1987 c-12 -21 -27 -42 -32 -48 -11 -11 9 29 31 63 24 37 25 25 1 -15z
m7108 -28 c21 -42 1 -19 -26 30 -13 22 -15 31 -6 20 9 -11 23 -33 32 -50z
m-7157 -55 c-6 -11 -13 -20 -16 -20 -2 0 0 9 6 20 6 11 13 20 16 20 2 0 0 -9
-6 -20z m7190 0 c6 -11 8 -20 6 -20 -3 0 -10 9 -16 20 -6 11 -8 20 -6 20 3 0
10 -9 16 -20z m-7230 -70 c-6 -11 -13 -20 -16 -20 -2 0 0 9 6 20 6 11 13 20
16 20 2 0 0 -9 -6 -20z m7270 0 c6 -11 8 -20 6 -20 -3 0 -10 9 -16 20 -6 11
-8 20 -6 20 3 0 10 -9 16 -20z m-7352 -155 c-18 -35 -34 -63 -36 -61 -4 5 56
126 63 126 3 0 -10 -29 -27 -65z"/>
<path d="M4228 8633 l-78 -4 0 -32 c0 -18 18 -243 40 -502 22 -258 43 -507 46
-553 4 -45 12 -89 18 -96 15 -20 199 -102 267 -120 31 -8 81 -17 112 -21 l56
-7 5 33 c18 111 110 1288 102 1296 -7 8 -452 12 -568 6z"/>
<path d="M5225 8566 c-2 -6 -24 -123 -49 -261 -25 -137 -59 -324 -75 -415 -54
-293 -91 -514 -87 -518 2 -2 82 31 177 74 96 42 219 94 273 115 54 20 102 43
107 51 4 7 40 101 79 208 148 404 210 584 203 591 -21 20 -342 109 -531 148
-67 13 -95 15 -97 7z"/>
<path d="M3670 8557 c-139 -27 -558 -145 -578 -162 -1 -1 32 -96 74 -211 42
-115 96 -261 119 -324 l42 -115 99 -7 c106 -7 216 -35 367 -93 49 -20 92 -33
94 -31 3 3 -12 98 -32 213 -99 562 -126 709 -133 724 -6 13 -15 14 -52 6z"/>
<path d="M6126 7977 c-69 -150 -126 -276 -126 -279 0 -3 51 -8 113 -11 132 -6
224 -30 354 -92 l92 -43 34 46 c94 130 227 323 227 330 0 18 -530 322 -562
322 -3 0 -62 -123 -132 -273z"/>
<path d="M2570 8164 c-189 -99 -430 -248 -430 -266 0 -5 40 -66 88 -136 208
-301 357 -512 362 -512 3 0 23 28 45 61 52 79 177 198 268 256 40 25 73 47 75
49 3 2 -256 564 -277 601 -4 8 -44 -8 -131 -53z"/>
<path d="M3355 7721 c-12 -5 15 -10 70 -14 105 -8 229 -39 373 -95 56 -22 102
-36 102 -32 0 9 -119 56 -238 96 -106 34 -270 58 -307 45z"/>
<path d="M5986 7671 c-3 -4 49 -11 117 -14 142 -6 231 -28 350 -88 93 -46 127
-48 40 -2 -82 44 -223 90 -316 102 -95 13 -184 14 -191 2z"/>
<path d="M7125 7611 c-22 -26 -91 -110 -153 -185 l-113 -136 46 -69 c25 -39
58 -98 74 -133 32 -70 85 -232 96 -291 4 -20 11 -39 15 -42 5 -3 48 28 97 67
150 124 453 380 453 384 0 25 -430 444 -463 452 -7 1 -30 -20 -52 -47z"/>
<path d="M1674 7531 c-114 -103 -334 -335 -334 -352 0 -9 729 -629 766 -652
14 -8 115 118 218 273 42 63 76 111 76 106 0 -16 -81 -139 -169 -256 -99 -131
-108 -146 -93 -136 30 18 272 362 272 385 0 12 -99 133 -362 443 -117 138
-222 261 -233 275 l-20 25 -121 -111z"/>
<path d="M2905 7548 c-44 -29 -114 -86 -155 -128 -73 -73 -158 -185 -148 -195
2 -3 22 20 43 51 57 82 175 196 266 256 43 29 79 56 79 60 0 12 0 12 -85 -44z"/>
<path d="M5470 7551 c-41 -16 -154 -63 -250 -105 -225 -98 -217 -95 -202 -95
6 -1 87 32 180 73 92 40 208 88 257 106 50 19 94 37 100 42 16 14 -6 8 -85
-21z"/>
<path d="M3227 7410 c-47 -37 -63 -137 -72 -464 -8 -270 -46 -488 -106 -612
-57 -115 -187 -213 -304 -229 -155 -21 -241 -60 -327 -148 -192 -195 -303
-449 -383 -877 -19 -102 -37 -196 -40 -208 -6 -23 -9 -21 -73 33 l-67 58 62
-62 c34 -34 63 -67 66 -74 2 -6 13 13 25 43 11 30 37 93 56 140 20 47 49 144
65 215 61 271 225 574 379 700 19 16 31 34 28 42 -3 8 2 16 12 19 66 20 179
67 309 127 l153 70 77 130 c42 72 87 162 100 200 26 74 45 215 38 281 -32 296
-37 372 -32 456 6 94 13 130 26 130 8 -1 114 -146 137 -190 16 -29 19 -56 18
-170 0 -111 -5 -154 -27 -245 -53 -213 -81 -282 -173 -421 -47 -71 -99 -144
-117 -161 -35 -37 -31 -41 16 -17 43 22 113 75 227 173 92 79 186 136 263 161
30 9 37 16 35 33 -2 17 6 24 47 38 66 24 151 24 217 0 29 -11 87 -22 128 -25
l75 -7 -57 25 c-153 65 -252 182 -301 353 -35 121 -81 215 -138 277 -25 28
-55 66 -68 84 -38 55 -183 142 -236 142 -7 0 -24 -9 -38 -20z"/>
<path d="M4250 7421 c0 -11 187 -94 259 -115 29 -9 83 -18 120 -21 l66 -5 -82
15 c-104 19 -185 46 -284 96 -44 21 -79 35 -79 30z"/>
<path d="M6846 7258 c5 -7 27 -43 51 -80 56 -87 95 -180 137 -323 18 -63 36
-118 40 -122 16 -16 -45 195 -85 295 -27 68 -90 183 -122 225 -16 19 -32 23
-21 5z"/>
<path d="M6019 7231 c-14 -5 -36 -14 -50 -21 -31 -17 -155 -141 -202 -203 -20
-27 -126 -138 -235 -247 l-197 -199 -58 -7 c-32 -3 -80 -3 -105 2 -84 16 -290
8 -487 -19 -104 -15 -224 -30 -265 -34 -72 -7 -74 -7 -35 -15 22 -5 202 -10
400 -12 334 -2 435 -8 435 -25 0 -4 -21 -32 -47 -62 -25 -30 -54 -73 -65 -95
l-18 -42 -82 29 c-46 15 -108 31 -138 35 l-54 7 28 -33 c24 -29 27 -40 22 -73
-4 -21 -14 -49 -22 -63 -16 -23 -16 -24 10 -24 14 0 26 -3 26 -6 0 -3 -14 -25
-31 -50 -34 -49 -48 -107 -30 -127 8 -10 6 -23 -9 -52 -33 -64 -23 -68 43 -18
100 77 138 98 147 83 6 -10 12 -11 22 -3 23 19 88 35 114 29 14 -4 30 -17 36
-31 6 -14 23 -27 38 -30 31 -7 56 -31 91 -90 13 -22 47 -72 75 -111 28 -39 61
-97 74 -128 22 -54 23 -56 41 -40 39 35 122 10 235 -72 109 -77 192 -206 259
-399 16 -44 52 -116 83 -163 l56 -83 8 -132 c9 -131 35 -286 61 -362 l14 -39
9 44 c14 73 18 -148 4 -240 -19 -118 -142 -441 -229 -600 -31 -58 -76 -145
-99 -195 -72 -154 -144 -279 -267 -465 -40 -61 -71 -110 -70 -110 2 0 52 23
111 51 101 47 214 92 214 85 0 -2 -38 -41 -83 -87 -46 -46 -90 -95 -96 -108
-13 -23 -12 -23 23 -19 21 2 36 0 36 -7 0 -5 -11 -45 -25 -88 -14 -43 -25 -87
-25 -98 0 -18 2 -18 23 -5 34 21 98 30 108 14 15 -23 9 -91 -10 -134 -11 -23
-54 -79 -96 -125 -66 -72 -115 -139 -102 -139 2 0 55 20 118 45 63 25 115 45
117 45 1 0 0 -11 -4 -25 -3 -14 -4 -25 0 -25 3 0 70 42 148 94 156 103 224
166 288 266 24 38 77 97 128 143 116 103 202 171 202 158 0 -6 -11 -40 -25
-77 -35 -92 -32 -100 18 -50 24 23 81 66 127 95 83 50 85 51 91 29 5 -19 14
-7 48 67 45 95 93 227 85 234 -2 2 -13 -4 -24 -14 -11 -10 -23 -15 -27 -11 -4
4 -7 44 -6 88 1 75 0 79 -14 58 -14 -20 -69 -50 -91 -50 -13 0 -31 130 -34
247 -3 94 -4 101 -18 83 -20 -27 -71 -54 -63 -34 2 7 -3 31 -13 54 -13 29 -22
39 -34 34 -42 -17 -44 -17 -24 7 32 36 74 125 74 157 0 15 4 32 9 37 11 13 22
273 11 280 -4 3 -30 -39 -56 -92 -62 -126 -170 -264 -150 -192 7 23 6 23 -8 5
-9 -11 -23 -44 -32 -75 -25 -89 -118 -272 -164 -324 -49 -56 -105 -87 -155
-87 -19 0 -35 2 -35 5 0 2 25 48 55 102 30 54 75 148 100 208 25 61 54 128 64
150 28 61 49 133 61 209 6 38 15 77 21 87 5 11 8 87 6 181 -3 157 -4 166 -37
253 -33 86 -34 96 -33 213 1 68 7 154 13 193 l12 69 90 -95 c49 -52 93 -95 98
-95 4 0 17 71 29 157 12 86 23 158 24 160 2 1 9 -55 15 -126 7 -70 22 -159 33
-197 11 -38 28 -100 36 -139 9 -38 19 -72 23 -75 4 -3 10 -23 14 -45 12 -62
91 -300 131 -395 20 -47 37 -94 37 -105 1 -11 12 -62 25 -114 12 -51 23 -104
23 -118 0 -19 4 -24 16 -19 13 5 15 1 10 -19 -4 -14 -2 -25 3 -25 6 0 6 -12 1
-29 -6 -23 -3 -37 21 -72 16 -24 29 -50 29 -57 0 -6 9 -29 20 -49 16 -30 20
-57 20 -130 0 -50 5 -95 10 -98 6 -3 10 -14 10 -24 0 -10 7 -24 15 -31 10 -8
15 -32 16 -74 0 -33 8 -86 18 -116 l19 -55 -4 50 c-2 28 -6 91 -9 140 -14 238
-154 777 -359 1381 l-85 250 -16 205 c-21 264 -42 369 -99 485 -25 50 -68 154
-95 231 -28 78 -60 162 -70 187 l-20 45 25 132 c46 252 50 329 25 549 -30 262
-90 493 -147 568 -40 52 -114 82 -199 81 -38 0 -82 -4 -96 -8z m-130 -164 c-9
-72 -46 -142 -144 -273 -45 -60 -96 -134 -113 -164 -30 -52 -31 -53 -37 -27
-11 41 20 172 55 232 18 32 65 85 111 127 45 40 92 92 106 115 14 24 26 43 27
43 2 0 -1 -24 -5 -53z"/>
<path d="M4308 6503 c7 -3 16 -2 19 1 4 3 -2 6 -13 5 -11 0 -14 -3 -6 -6z"/>
<path d="M7140 6318 c0 -17 56 -421 66 -476 4 -18 8 -31 11 -29 4 5 -67 510
-73 516 -2 2 -4 -3 -4 -11z"/>
<path d="M4315 6279 c-110 -32 -184 -72 -274 -152 -95 -84 -221 -223 -256
-282 -13 -22 -40 -92 -60 -155 -45 -138 -57 -165 -100 -210 -38 -41 -42 -55
-55 -180 -5 -52 -16 -115 -24 -140 l-16 -45 43 50 c92 110 161 174 215 203 61
33 103 72 145 140 20 31 23 42 13 42 -22 0 31 145 88 245 49 85 53 95 34 95
-6 0 -2 11 10 23 l22 24 -22 10 c-22 10 -21 11 26 44 27 19 76 54 109 79 33
25 80 59 105 77 44 31 44 34 3 45 -7 2 9 20 40 43 89 67 77 79 -46 44z"/>
<path d="M1874 6228 c-73 -79 -157 -194 -224 -308 -56 -94 -24 -63 38 37 33
54 93 139 132 188 40 50 77 96 82 103 21 25 1 11 -28 -20z"/>
<path d="M3068 5564 c-4 -3 -39 -6 -78 -5 -125 1 -186 -41 -252 -174 -35 -70
-39 -86 -35 -131 6 -60 33 -118 74 -156 30 -28 100 -58 137 -58 47 1 111 42
187 123 82 85 100 113 50 78 -16 -12 -32 -21 -35 -21 -9 0 13 50 49 109 43 71
54 111 30 111 -18 0 -75 52 -75 69 0 6 7 11 15 11 16 0 19 9 7 26 -8 14 -65
27 -74 18z m-118 -113 c0 -10 10 -26 23 -34 19 -14 20 -18 7 -26 -8 -6 -23 -8
-34 -5 -12 4 -29 -5 -51 -26 -29 -28 -35 -42 -41 -97 -11 -106 -46 -116 -86
-26 -13 31 -17 54 -12 80 9 54 27 78 86 118 59 39 108 47 108 16z m155 -24
c23 -18 14 -63 -16 -72 -39 -13 -67 43 -37 73 16 16 30 15 53 -1z"/>
<path d="M1459 5513 c-33 -77 -140 -404 -136 -416 2 -6 27 61 55 149 29 87 66
194 82 237 32 85 31 104 -1 30z"/>
<path d="M7281 5480 c-2 -25 92 -424 102 -435 6 -6 7 -3 3 10 -3 11 -26 110
-51 220 -48 210 -53 229 -54 205z"/>
<path d="M4329 5286 c-53 -14 -87 -37 -149 -100 -66 -68 -120 -60 -120 18 0
25 -2 25 -60 23 -33 -1 -60 -6 -60 -11 0 -5 -28 -35 -61 -66 -71 -66 -80 -101
-36 -134 24 -18 25 -19 10 -55 -22 -52 -27 -179 -8 -208 17 -25 49 -47 82 -57
19 -6 24 1 47 72 15 44 35 87 45 96 17 15 20 14 54 -18 61 -58 118 -71 302
-71 149 0 163 2 205 24 132 70 250 199 250 274 0 47 -219 183 -342 212 -75 17
-98 18 -159 1z m166 -76 c14 -22 -83 -114 -134 -127 -34 -8 -41 -20 -41 -70 0
-79 41 -140 115 -173 l40 -17 -65 -8 c-74 -8 -167 6 -204 30 -37 24 -59 80
-52 127 17 108 118 220 215 239 55 10 119 10 126 -1z"/>
<path d="M1225 4738 c-6 -18 -35 -157 -35 -170 0 -29 12 7 29 90 16 82 19 116
6 80z"/>
<path d="M7460 4724 c0 -20 124 -467 127 -457 4 10 -115 454 -123 462 -2 2 -4
0 -4 -5z"/>
<path d="M2619 4660 c-152 -26 -209 -97 -239 -300 -7 -41 -23 -119 -36 -173
-56 -237 -54 -295 18 -401 55 -81 78 -133 78 -181 0 -76 17 -111 77 -162 31
-26 88 -79 128 -118 40 -38 106 -98 147 -132 l75 -62 23 31 c21 28 25 30 70
24 37 -5 49 -3 53 8 5 12 12 12 41 4 42 -13 66 -5 66 21 0 11 11 32 23 47 29
33 82 38 103 9 8 -11 34 -21 66 -26 29 -5 58 -16 64 -24 13 -18 44 -10 44 12
0 24 72 103 95 103 27 0 49 -15 41 -29 -4 -6 5 -26 19 -45 26 -34 27 -34 123
-41 171 -11 192 -11 201 4 5 7 24 16 42 20 38 8 51 37 26 56 -14 10 -9 18 30
56 53 51 77 99 68 139 -4 16 -2 31 5 35 8 5 8 11 -1 22 -26 30 -68 43 -146 43
-90 0 -156 -14 -309 -66 -139 -46 -199 -44 -319 11 -93 43 -108 54 -147 114
-34 54 -35 67 -7 74 28 8 19 31 -14 35 -22 3 -29 11 -37 44 -9 33 -9 43 4 57
20 22 20 41 1 41 -10 0 -15 10 -15 30 0 34 7 38 25 13 11 -15 17 -15 39 -5 34
15 33 27 -4 42 -24 10 -28 15 -19 26 9 11 8 18 -4 32 -21 24 -6 52 17 33 17
-15 51 -7 41 9 -11 17 5 32 20 20 26 -22 35 0 35 86 0 54 6 98 15 122 18 41
22 111 9 135 -5 9 -23 26 -41 39 -17 13 -50 38 -74 55 -48 38 -223 98 -326
113 -78 11 -128 11 -194 0z m546 -520 c-3 -5 -11 -10 -16 -10 -6 0 -7 5 -4 10
3 6 11 10 16 10 6 0 7 -4 4 -10z"/>
<path d="M1187 4543 c-4 -7 -14 -84 -32 -258 -4 -35 -3 -46 5 -35 5 8 10 38
11 65 0 28 6 91 13 140 13 87 13 105 3 88z"/>
<path d="M3445 4112 c-13 -9 -16 -42 -4 -42 15 0 59 31 59 41 0 11 -41 12 -55
1z"/>
<path d="M3334 4055 c3 -9 6 -19 6 -21 0 -2 7 -4 16 -4 22 0 13 34 -10 38 -14
3 -17 0 -12 -13z"/>
<path d="M3223 3995 c-3 -9 -3 -18 0 -21 9 -9 27 6 27 22 0 19 -19 18 -27 -1z"/>
<path d="M1767 3966 c-32 -18 -64 -39 -70 -46 -13 -13 73 33 114 62 39 27 18
20 -44 -16z"/>
<path d="M3355 3890 c-18 -20 -17 -20 12 -20 17 0 41 9 54 20 l24 19 -36 1
c-24 0 -42 -7 -54 -20z"/>
<path d="M7681 3898 c-1 -4 12 -67 29 -140 16 -73 41 -198 55 -278 29 -159 38
-194 30 -110 -12 110 -109 563 -114 528z"/>
<path d="M3268 3883 c-21 -5 -24 -23 -4 -23 8 0 16 -5 18 -12 6 -18 40 0 36
19 -3 19 -21 24 -50 16z"/>
<path d="M1161 3845 c-1 -41 41 -347 60 -436 20 -94 20 -42 -1 72 -11 63 -28
179 -39 259 -10 80 -19 127 -20 105z"/>
<path d="M3146 3853 c9 -39 20 -48 39 -33 21 17 19 37 -4 50 -33 17 -42 12
-35 -17z"/>
<path d="M3195 3740 c-25 -28 -9 -45 29 -30 18 6 26 16 24 27 -5 26 -31 27
-53 3z"/>
<path d="M3321 3726 c-8 -10 -9 -16 -1 -21 15 -9 52 5 47 18 -6 18 -32 20 -46
3z"/>
<path d="M3250 3646 c0 -18 16 -29 30 -21 13 8 1 35 -16 35 -8 0 -14 -6 -14
-14z"/>
<path d="M1297 2955 c10 -38 11 -534 1 -595 -7 -38 -6 -42 5 -25 18 30 17 619
-1 637 -11 11 -12 8 -5 -17z"/>
<path d="M7857 2732 c7 -86 17 -251 21 -367 8 -194 9 -200 10 -78 2 142 -25
583 -36 595 -4 4 -2 -64 5 -150z"/>
<path d="M4158 2263 c7 -3 16 -2 19 1 4 3 -2 6 -13 5 -11 0 -14 -3 -6 -6z"/>
<path d="M4073 2253 c9 -2 23 -2 30 0 6 3 -1 5 -18 5 -16 0 -22 -2 -12 -5z"/>
<path d="M3968 2243 c6 -2 18 -2 25 0 6 3 1 5 -13 5 -14 0 -19 -2 -12 -5z"/>
<path d="M3898 2233 c7 -3 16 -2 19 1 4 3 -2 6 -13 5 -11 0 -14 -3 -6 -6z"/>
<path d="M3838 2223 c7 -3 16 -2 19 1 4 3 -2 6 -13 5 -11 0 -14 -3 -6 -6z"/>
<path d="M3788 2213 c7 -3 16 -2 19 1 4 3 -2 6 -13 5 -11 0 -14 -3 -6 -6z"/>
<path d="M3628 2183 c7 -3 16 -2 19 1 4 3 -2 6 -13 5 -11 0 -14 -3 -6 -6z"/>
<path d="M3238 2173 c7 -3 16 -2 19 1 4 3 -2 6 -13 5 -11 0 -14 -3 -6 -6z"/>
<path d="M3558 2173 c6 -2 18 -2 25 0 6 3 1 5 -13 5 -14 0 -19 -2 -12 -5z"/>
<path d="M3298 2163 c6 -2 18 -2 25 0 6 3 1 5 -13 5 -14 0 -19 -2 -12 -5z"/>
<path d="M3463 2163 c9 -2 25 -2 35 0 9 3 1 5 -18 5 -19 0 -27 -2 -17 -5z"/>
<path d="M3398 1973 c-16 -2 -28 -9 -28 -14 0 -5 -8 -9 -18 -9 -10 0 -23 -5
-29 -11 -9 -9 -2 -19 30 -40 23 -15 54 -31 70 -34 27 -7 38 -25 15 -25 -6 0
-3 -9 7 -20 14 -16 15 -22 5 -35 -10 -12 -9 -16 4 -21 8 -3 16 -16 16 -27 0
-12 1 -42 3 -66 2 -43 1 -44 -38 -58 -32 -12 -50 -12 -89 -4 -58 13 -168 84
-237 152 -77 78 -140 89 -104 19 15 -30 15 -32 1 -27 -10 4 -16 1 -16 -8 0 -8
-7 -15 -15 -15 -19 0 -19 1 6 -72 14 -42 17 -63 9 -68 -7 -4 -8 -15 -2 -31 5
-14 6 -36 0 -54 -7 -26 -5 -33 19 -54 22 -19 25 -26 15 -42 -9 -15 -8 -25 8
-52 40 -68 23 -189 -31 -217 -16 -9 -19 -17 -14 -40 5 -24 -1 -39 -39 -87
l-46 -58 26 -3 c17 -2 44 9 79 32 l53 35 6 -35 c4 -19 12 -34 19 -34 10 0 92
113 152 209 6 9 26 40 44 69 36 58 58 65 112 36 17 -8 32 -14 34 -12 1 2 15
35 30 73 15 39 28 71 30 73 1 2 18 -6 36 -17 l34 -20 46 57 c61 75 70 95 67
139 l-3 37 50 8 c112 17 115 20 101 85 -7 30 -4 34 63 85 39 29 71 57 71 63 0
5 -7 19 -15 29 -20 27 -19 46 3 46 16 0 64 28 52 30 -3 1 -52 5 -110 10 -58 4
-145 14 -194 21 -79 12 -89 11 -97 -3 -8 -15 -13 -15 -44 -2 -33 13 -87 16
-147 7z"/>
</g>
</svg>
